<svg xmlns="http://www.w3.org/2000/svg"><defs><symbol id="icon-btn-arrow" viewBox="0 0 32 32"><path fill="none" stroke="#d41443" style="stroke:var(--color1,#d41443)" stroke-linejoin="round" stroke-linecap="round" stroke-width="6.4" d="M6.742 3.2 23.568 16 6.742 28.8"/></symbol><symbol id="icon-icon-burger" viewBox="0 0 46 32"><path fill="none" stroke="#d41443" style="stroke:var(--color1,#d41443)" stroke-width="2.286" d="M0 2.286h45.714M0 16h45.714M0 29.714h45.714"/></symbol><symbol id="icon-facebook" viewBox="0 0 32 32"><path fill="#fff" style="fill:var(--color2,#fff)" d="M16 0C7.211 0 0 7.211 0 16c0 7.499 5.262 14.312 12.25 16v-5.293a3.921 3.921 0 0 1-2.062-.06l.028.007c-.946-.278-1.714-.909-2.285-1.869-.363-.613-1.008-1.28-1.68-1.23l-.165-1.867c1.454-.125 2.71.886 3.456 2.139.333.558.715.885 1.205 1.029.472.141.981.074 1.573-.136.149-1.186.693-1.629 1.104-2.256-4.168-.621-5.829-2.832-6.488-4.576-.874-2.318-.405-5.213 1.139-7.043.03-.035.085-.128.064-.192-.709-2.141.154-3.91.186-4.098.818.24.95-.243 3.552 1.336l.448.27c.189.112.128.048.317.032a13.246 13.246 0 0 1 3.349-.469h.01c1.136.014 2.272.176 3.403.483l.146.016c-.013-.003.04-.01.128-.062 3.248-1.968 3.131-1.325 4.003-1.608.032.189.882 1.987.182 4.099-.096.291 2.816 2.957 1.202 7.235-.659 1.744-2.32 3.957-6.486 4.578.534.816 1.176 1.248 1.173 2.928v6.606c6.986-1.688 12.25-8.501 12.25-16 0-8.789-7.211-16-16-16z"/></symbol><symbol id="icon-github" viewBox="0 0 32 32"><path fill="#fff" style="fill:var(--color2,#fff)" d="M22.143 15.971H18.11v14.865h-6.112V15.971H9.092v-5.222h2.906V7.367c0-2.417 1.142-6.204 6.167-6.204l4.527.019v5.072h-3.284c-.538 0-1.297.271-1.297 1.425v3.073h4.567l-.534 5.219z"/></symbol><symbol id="icon-home" viewBox="0 0 32 32"><path fill="#d31342" style="fill:var(--color2,#d31342)" d="M31.6 15.44c.579-.536.523-1.363-.125-1.843L17.174 3.021a2.033 2.033 0 0 0-2.331.025l.006-.004L.5 14.162c-.637.491-.667 1.317-.069 1.84l.36.32c.595.523 1.56.587 2.152.136l1.072-.811v11.885c0 .728.701 1.317 1.563 1.317h5.592c.864 0 1.563-.587 1.563-1.317v-8.315h7.133v8.315c-.011.728.605 1.317 1.467 1.317h5.928c.861 0 1.56-.589 1.56-1.32V15.814l.664.491c.363.269 1.131.053 1.709-.485l.408-.379z"/></symbol><symbol id="icon-close-menu" viewBox="0 0 32 32"><path fill="none" stroke="#fff" style="stroke:var(--color2,#fff)" stroke-width="2" d="m2.52 2 26.96 28M2 29.48 30 2.52"/></symbol><symbol id="icon-telegram" viewBox="0 0 32 32"><path fill="#fff" style="fill:var(--color2,#fff)" d="m12.612 19.671-.49 6.444c.703 0 1.007-.282 1.372-.62l3.292-2.938 6.822 4.665c1.251.65 2.134.307 2.473-1.075L30.558 6.56c.399-1.727-.669-2.401-1.887-1.978L2.348 13.989c-1.796.652-1.77 1.585-.305 2.012l6.729 1.952 15.632-9.129c.736-.455 1.405-.204.855.252L12.612 19.672z"/></symbol><symbol id="icon-arrow-right" viewBox="0 0 32 32"><path d="m19.414 27.414 10-10a2 2 0 0 0 0-2.828l-10-10a2 2 0 1 0-2.828 2.828L23.172 14H4a2 2 0 1 0 0 4h19.172l-6.586 6.586c-.39.39-.586.902-.586 1.414s.195 1.024.586 1.414a2 2 0 0 0 2.828 0z"/></symbol><symbol id="about-modal-close" viewBox="0 0 32 32"><path d="M23.734 10.304 22.23 8.8l-5.963 5.962L10.305 8.8l-1.504 1.504 5.962 5.962-5.962 5.963 1.504 1.504 5.962-5.963 5.963 5.963 1.504-1.504-5.963-5.963 5.963-5.962z"/></symbol><symbol id="form-name" viewBox="0 0 32 32"><path d="M16 16a8 8 0 0 0 0-16 8 8 0 0 0 0 16zm0 4c-5.339 0-16 2.68-16 8v2c0 1.099.901 2 2 2h28c1.099 0 2-.901 2-2v-2c0-5.32-10.661-8-16-8z"/></symbol><symbol id="form-phone" viewBox="0 0 32 32"><path d="m27.419 20.853-4.201-.48a3.28 3.28 0 0 0-2.713.941l-3.045 3.045c-4.718-2.435-8.467-6.185-10.835-10.764l-.065-.139L9.623 10.4a3.281 3.281 0 0 0 .94-2.729l.002.016-.48-4.169A3.314 3.314 0 0 0 6.798.592H3.933C2.063.587.509 2.142.623 4.009c.878 14.126 12.176 25.408 26.286 26.286 1.867.114 3.424-1.44 3.424-3.31v-2.878a3.279 3.279 0 0 0-2.897-3.256l-.015-.001z"/></symbol><symbol id="form-mail" viewBox="0 0 32 32"><path d="M28 4H4a2.997 2.997 0 0 0-2.986 3L1 25c0 1.65 1.35 3 3 3h24c1.65 0 3-1.35 3-3V7c0-1.65-1.35-3-3-3zm-.6 6.376-10.604 6.628c-.226.141-.501.225-.795.225s-.569-.084-.801-.229l.006.004L4.6 10.374a1.275 1.275 0 1 1 1.354-2.157l-.005-.003 10.05 6.286 10.05-6.286a1.274 1.274 0 1 1 1.356 2.157l-.006.003z"/></symbol><symbol id="form-mark" viewBox="0 0 34 32"><path d="m8.442 16.538-.147-.141-.147.139-2.057 1.95.162.156 7.605 7.253.147-.141 16.171-15.426-.162-.154-2.029-1.935-.147.141-13.98 13.325-5.417-5.167z"/></symbol><symbol id="icon-closing" viewBox="0 0 32 32"><path d="M32 3.223 28.777 0 16 12.777 3.223 0 0 3.223 12.777 16 0 28.777 3.223 32 16 19.223 28.777 32 32 28.777 19.223 16 32 3.223z"/></symbol></defs></svg>